<?xml version="1.0" encoding="UTF-8"?>
<svg version="1.1" xmlns="http://www.w3.org/2000/svg" width="150" height="150">
<path d="M0 0 C49.5 0 99 0 150 0 C150 49.5 150 99 150 150 C100.5 150 51 150 0 150 C0 100.5 0 51 0 0 Z " fill="#F7F7F8" transform="translate(0,0)"/>
<path d="M0 0 C9.99238623 8.12352365 13.95780315 22.74681889 16 35 C17.86210107 54.29813839 12.41982233 74.23893997 0.28515625 89.3515625 C-12.83365387 104.55592705 -28.07092655 113.1711929 -48 116 C-69.07273781 117.09700693 -86.7345664 111.56327285 -103 98 C-106.69563043 94.61509342 -108.51137062 91.76361401 -110 87 C-109.34 87 -108.68 87 -108 87 C-108 86.01 -108 85.02 -108 84 C-105.69 84.33 -103.38 84.66 -101 85 C-101 83.68 -101 82.36 -101 81 C-101.495 81.99 -101.495 81.99 -102 83 C-104.97 83 -107.94 83 -111 83 C-106.98072741 77.45992157 -102.68667739 72.20716631 -98.24975586 67.00024414 C-86.5267575 54.25094245 -86.5267575 54.25094245 -77 40 C-73.33653565 37.55769043 -70.94500963 37.93931773 -66.76171875 38.21875 C-51.46001931 39.43072928 -51.46001931 39.43072928 -37.14160156 35.33984375 C-32.82132202 31.34269796 -30.00027656 26.62050385 -27.34228516 21.4140625 C-25.03436539 17.26333303 -22.00938357 13.65913063 -19 10 C-19.99 9.505 -19.99 9.505 -21 9 C-18.44462079 7.48659093 -15.88187787 5.98929997 -13.3125 4.5 C-12.59126953 4.07074219 -11.87003906 3.64148437 -11.12695312 3.19921875 C-3.83871831 -0.99401224 -3.83871831 -0.99401224 0 0 Z " fill="#FAFAFA" transform="translate(130,31)"/>
<path d="M0 0 C49.5 0 99 0 150 0 C150 49.5 150 99 150 150 C100.5 150 51 150 0 150 C0 100.5 0 51 0 0 Z M20 28 C17.73409129 30.86651101 15.84453563 33.84794544 14 37 C13.67080566 37.54962402 13.34161133 38.09924805 13.00244141 38.66552734 C8.10289871 46.92475646 4.49382081 54.24167134 4 64 C3.95907227 64.8038916 3.91814453 65.6077832 3.87597656 66.43603516 C2.91719448 88.41274686 8.01173922 107.78400333 22.72314453 124.61376953 C34.16669367 137.02956951 50.96243236 146.0790504 68 147 C88.69920553 147.81173355 106.42825174 142.90295613 122.0625 128.875 C138.33183369 113.67267769 145.6630634 95.00898866 146.4375 73 C145.84709164 52.17039296 136.16724589 33.5148619 121.25 19.3125 C106.8627226 6.91495245 89.47161357 1.50863742 70.62109375 1.7265625 C50.56988799 3.24067728 33.27622199 13.18522519 20 28 Z " fill="#FEFEFE" transform="translate(0,0)"/>
<path d="M0 0 C3.19172107 0.62531878 6.36858108 1.30001636 9.54589844 1.99462891 C10.64095703 2.22859375 11.73601562 2.46255859 12.86425781 2.70361328 C15.53025833 3.27406754 18.19485915 3.85031114 20.85839844 4.43212891 C20.85839844 4.76212891 20.85839844 5.09212891 20.85839844 5.43212891 C19.94662842 5.39434326 19.0348584 5.35655762 18.09545898 5.31762695 C0.50219384 3.80670514 0.50219384 3.80670514 -15.39941406 9.00634766 C-17.81493357 11.61520499 -19.56160114 14.54469332 -21.18652344 17.6953125 C-22.70986864 20.46552666 -24.76876703 22.73523513 -26.82910156 25.11962891 C-29.05264196 27.80525496 -31.17092913 30.47433338 -33.16113281 33.33837891 C-38.01273659 40.15167651 -38.01273659 40.15167651 -41.64160156 41.05322266 C-43.9012831 41.05675341 -45.93271742 40.8923131 -48.14160156 40.43212891 C-44.12173377 34.89123006 -39.82733192 29.63738985 -35.38916016 24.43017578 C-32.37705288 20.89515445 -29.396305 17.33839296 -26.45410156 13.74462891 C-25.72578125 12.86935547 -24.99746094 11.99408203 -24.24707031 11.09228516 C-22.08895432 8.44231231 -22.08895432 8.44231231 -20.19238281 5.49072266 C-19.556875 4.56388672 -18.92136719 3.63705078 -18.26660156 2.68212891 C-17.73292969 1.84166016 -17.19925781 1.00119141 -16.64941406 0.13525391 C-11.72224794 -3.21092122 -5.55743394 -1.00455326 0 0 Z " fill="#5389B9" transform="translate(67.1416015625,73.56787109375)"/>
<path d="M0 0 C0.99 0.495 0.99 0.495 2 1 C1.63874023 1.46148437 1.27748047 1.92296875 0.90527344 2.3984375 C-6.12533582 11.3876688 -13.10001541 20.41112857 -19.92602539 29.55688477 C-29.85585702 42.85585702 -29.85585702 42.85585702 -32 45 C-39.23967472 45.4872858 -45.94079381 43.99593716 -53 42.5 C-54.15628906 42.26152344 -55.31257813 42.02304688 -56.50390625 41.77734375 C-59.33747173 41.19189634 -62.16933471 40.59928499 -65 40 C-65 39.67 -65 39.34 -65 39 C-64.1843457 39.04825928 -63.36869141 39.09651855 -62.52832031 39.14624023 C-46.17299171 40.62977185 -46.17299171 40.62977185 -31.75390625 35.05078125 C-29.11423448 31.99427626 -27.09939946 28.61746847 -25.18408203 25.07177734 C-23.22045678 21.63604047 -20.72195343 18.64128833 -18.25 15.5625 C-17.41863791 14.48295393 -16.59016396 13.40117265 -15.765625 12.31640625 C-15.18296875 11.55199219 -14.6003125 10.78757812 -14 10 C-14.66 9.67 -15.32 9.34 -16 9 C-13.38029207 7.46935061 -10.75498357 5.95030252 -8.125 4.4375 C-7.00544922 3.78104492 -7.00544922 3.78104492 -5.86328125 3.11132812 C-5.14785156 2.70205078 -4.43242188 2.29277344 -3.6953125 1.87109375 C-3.03547363 1.48880615 -2.37563477 1.10651855 -1.69580078 0.71264648 C-1.13618652 0.47747314 -0.57657227 0.2422998 0 0 Z " fill="#7B4F94" transform="translate(125,31)"/>
<path d="M0 0 C2.31 0 4.62 0 7 0 C9 2 9 2 9.0625 4.8125 C9.041875 5.864375 9.02125 6.91625 9 8 C9.20625 8.886875 9.4125 9.77375 9.625 10.6875 C10 13 10 13 8 16 C5.36 16 2.72 16 0 16 C0 10.72 0 5.44 0 0 Z " fill="#1D1D1D" transform="translate(55,92)"/>
<path d="M0 0 C0.72822464 0.00424484 1.45644928 0.00848969 2.20674133 0.01286316 C4.53013252 0.02964142 6.85265275 0.0672902 9.17578125 0.10546875 C10.75194059 0.12051678 12.32811354 0.13420498 13.90429688 0.14648438 C17.76596002 0.1795419 21.62697303 0.23131681 25.48828125 0.29296875 C25.48828125 0.62296875 25.48828125 0.95296875 25.48828125 1.29296875 C13.11328125 1.78796875 13.11328125 1.78796875 0.48828125 2.29296875 C5.43828125 3.25203125 5.43828125 3.25203125 10.48828125 4.23046875 C12.02355469 4.53005493 12.02355469 4.53005493 13.58984375 4.83569336 C18.87909488 5.8514793 24.13560254 6.69331724 29.48828125 7.29296875 C29.15828125 8.61296875 28.82828125 9.93296875 28.48828125 11.29296875 C23.9818892 11.54332386 23.9818892 11.54332386 21.65576172 10.36352539 C19.13746767 9.11969577 16.8099239 8.59911957 14.05859375 8.0390625 C13.01574219 7.82443359 11.97289062 7.60980469 10.8984375 7.38867188 C9.27228516 7.06286133 9.27228516 7.06286133 7.61328125 6.73046875 C6.53691406 6.50939453 5.46054688 6.28832031 4.3515625 6.06054688 C-0.59211654 5.05169499 -5.53104603 4.10284545 -10.51171875 3.29296875 C-7.81128331 -0.58974688 -4.3024965 -0.09431465 0 0 Z " fill="#E8E6F2" transform="translate(63.51171875,68.70703125)"/>
<path d="M0 0 C0.33 0.66 0.66 1.32 1 2 C0.12422501 4.33739264 -0.81026748 6.5927637 -1.8125 8.875 C-8.58526307 25.09275958 -7.59971053 40.19549769 -4 57 C-3.78730469 57.99644531 -3.57460937 58.99289063 -3.35546875 60.01953125 C-2.91838009 62.01630319 -2.46222066 64.0088956 -2 66 C-4.46536502 63.53463498 -4.99000042 61.49471352 -6.0625 58.1875 C-6.40410156 57.14980469 -6.74570313 56.11210938 -7.09765625 55.04296875 C-11.30942992 40.83962809 -11.20226914 20.77266194 -4.35571289 7.55493164 C-2.96658674 4.99834473 -1.50275179 2.4911928 0 0 Z " fill="#DADADA" transform="translate(13,39)"/>
<path d="M0 0 C5.62297163 -0.14482458 10.68757689 0.30593687 16.1875 1.4375 C17.21520508 1.63956055 17.21520508 1.63956055 18.26367188 1.84570312 C20.17721857 2.22325565 22.08868802 2.61129272 24 3 C25.66666667 3.33333333 27.33333333 3.66666667 29 4 C29 4.33 29 4.66 29 5 C18.77 5 8.54 5 -2 5 C-1.34 4.34 -0.68 3.68 0 3 C0 2.01 0 1.02 0 0 Z " fill="#678EB1" transform="translate(59,74)"/>
<path d="M0 0 C-1.17314036 2.77287721 -2.65410934 4.82361288 -4.625 7.0625 C-7.31436107 9.75923113 -7.31436107 9.75923113 -7 13 C-9.97 13 -12.94 13 -16 13 C-14 10.33333333 -12 7.66666667 -10 5 C-9.48050781 4.27941406 -8.96101563 3.55882813 -8.42578125 2.81640625 C-5.81978245 -0.50356482 -4.0183725 -1.3394575 0 0 Z " fill="#5C8DBA" transform="translate(35,101)"/>
<path d="M0 0 C0.99 0.33 1.98 0.66 3 1 C4.16796875 3.6171875 4.16796875 3.6171875 5.1875 6.875 C5.53167969 7.94492188 5.87585938 9.01484375 6.23046875 10.1171875 C7 13 7 13 7 16 C6.34 16 5.68 16 5 16 C4.67 14.35 4.34 12.7 4 11 C2.02 11 0.04 11 -2 11 C-2.33 12.65 -2.66 14.3 -3 16 C-3.66 16 -4.32 16 -5 16 C-4.54762239 14.08191891 -4.08785537 12.16557967 -3.625 10.25 C-3.24214844 8.64898437 -3.24214844 8.64898437 -2.8515625 7.015625 C-2.12466459 4.44147278 -1.2973776 2.32399814 0 0 Z " fill="#222222" transform="translate(92,92)"/>
<path d="M0 0 C0 0.66 0 1.32 0 2 C-2.64 2.33 -5.28 2.66 -8 3 C-8.020625 4.27875 -8.04125 5.5575 -8.0625 6.875 C-8.07410156 7.59429687 -8.08570312 8.31359375 -8.09765625 9.0546875 C-8.12649242 11.08185404 -8.12649242 11.08185404 -7 13 C-3.97065509 13.65772428 -3.97065509 13.65772428 -1 14 C-1 12.35 -1 10.7 -1 9 C-1.99 8.67 -2.98 8.34 -4 8 C-2.35 8 -0.7 8 1 8 C1 10.64 1 13.28 1 16 C-7.15384615 16.61538462 -7.15384615 16.61538462 -10.0625 14.5 C-11.4051456 10.91961173 -11.6799589 7.77068116 -11 4 C-8.12243286 -0.60410742 -5.14365078 -0.39566544 0 0 Z " fill="#232323" transform="translate(126,92)"/>
<path d="M0 0 C0.99 0 1.98 0 3 0 C4.98 3.63 6.96 7.26 9 11 C9.33 7.37 9.66 3.74 10 0 C10.33 0 10.66 0 11 0 C11 5.28 11 10.56 11 16 C10.34 16 9.68 16 9 16 C7.02 12.37 5.04 8.74 3 5 C2.67 8.63 2.34 12.26 2 16 C1.34 16 0.68 16 0 16 C0 10.72 0 5.44 0 0 Z " fill="#2E2E2E" transform="translate(101,92)"/>
<path d="M0 0 C0 4.22570282 -2.398331 6.16810847 -5.0625 9.1875 C-5.81043823 10.05217896 -5.81043823 10.05217896 -6.57348633 10.93432617 C-8.04207208 12.62906702 -9.52003546 14.31519608 -11 16 C-12.13308594 17.30324219 -12.13308594 17.30324219 -13.2890625 18.6328125 C-14.85262059 20.42800882 -16.42207858 22.21743349 -18 24 C-18 20.40771389 -17.36809871 19.97553172 -15 17.4375 C-12.57492955 15.10102671 -12.57492955 15.10102671 -12 12 C-13.65 12.33 -15.3 12.66 -17 13 C-15.35 11.35 -13.7 9.7 -12 8 C-11.67 8.66 -11.34 9.32 -11 10 C-6.32751069 7.17477391 -3.34003602 4.32239956 0 0 Z " fill="#4F7295" transform="translate(46,89)"/>
<path d="M0 0 C0 0.33 0 0.66 0 1 C-1.65 1 -3.3 1 -5 1 C-5 1.99 -5 2.98 -5 4 C-8.20807554 6.38314183 -11.06380262 7.43768609 -15 8 C-15.33 7.01 -15.66 6.02 -16 5 C-12.03423277 -2.36499628 -7.64730542 -1.4732112 0 0 Z " fill="#598FC1" transform="translate(64,73)"/>
<path d="M0 0 C2.31 0 4.62 0 7 0 C7.66 0.66 8.32 1.32 9 2 C8 5 8 5 6 7 C3.375 7.125 3.375 7.125 1 7 C1 9.97 1 12.94 1 16 C0.67 16 0.34 16 0 16 C0 10.72 0 5.44 0 0 Z " fill="#454647" transform="translate(55,92)"/>
<path d="M0 0 C0.99 0 1.98 0 3 0 C3.67413211 1.91405367 4.3390332 3.83136026 5 5.75 C5.37125 6.81734375 5.7425 7.8846875 6.125 8.984375 C7 12 7 12 7 16 C6.34 16 5.68 16 5 16 C4.67 14.35 4.34 12.7 4 11 C2.02 11 0.04 11 -2 11 C-2.33 12.65 -2.66 14.3 -3 16 C-3.6875 14.1875 -3.6875 14.1875 -4 12 C-2.8125 10.1875 -2.8125 10.1875 -1 9 C1.1875 9.3125 1.1875 9.3125 3 10 C2.34 8.68 1.68 7.36 1 6 C0.01 6.495 0.01 6.495 -1 7 C-0.67 4.69 -0.34 2.38 0 0 Z " fill="#272727" transform="translate(71,92)"/>
<path d="M0 0 C1.65 0 3.3 0 5 0 C6 1 6 1 6.09765625 3.72265625 C6.08605469 4.82480469 6.07445312 5.92695312 6.0625 7.0625 C6.05347656 8.16722656 6.04445313 9.27195312 6.03515625 10.41015625 C6.02355469 11.26480469 6.01195312 12.11945312 6 13 C5.34 12.34 4.68 11.68 4 11 C4 10.01 4 9.02 4 8 C3.01 8 2.02 8 1 8 C1 9.65 1 11.3 1 13 C0.67 13 0.34 13 0 13 C0 8.71 0 4.42 0 0 Z " fill="#5F5F5F" transform="translate(56,42)"/>
<path d="M0 0 C3.63 0 7.26 0 11 0 C11 0.66 11 1.32 11 2 C9.68 2 8.36 2 7 2 C7 6.62 7 11.24 7 16 C6.34 16 5.68 16 5 16 C5 11.38 5 6.76 5 2 C3.35 2 1.7 2 0 2 C0 1.34 0 0.68 0 0 Z " fill="#2C2C2C" transform="translate(77,92)"/>
<path d="M0 0 C0.66 0 1.32 0 2 0 C2.52955234 1.78910903 3.0483937 3.58139148 3.5625 5.375 C3.85253906 6.37273438 4.14257812 7.37046875 4.44140625 8.3984375 C5 11 5 11 4 13 C3.67 11.68 3.34 10.36 3 9 C1.68 9 0.36 9 -1 9 C-1 10.32 -1 11.64 -1 13 C-1.66 13 -2.32 13 -3 13 C-2.68991116 11.39536551 -2.37683713 9.79130769 -2.0625 8.1875 C-1.88847656 7.29417969 -1.71445313 6.40085937 -1.53515625 5.48046875 C-1 3 -1 3 0 0 Z " fill="#575757" transform="translate(78,42)"/>
<path d="M0 0 C0.66 0 1.32 0 2 0 C2.99 4.29 3.98 8.58 5 13 C4.34 13 3.68 13 3 13 C2.67 12.01 2.34 11.02 2 10 C1.01 9.67 0.02 9.34 -1 9 C-1.66 10.32 -2.32 11.64 -3 13 C-2.45144652 8.428721 -1.58255197 4.32564205 0 0 Z " fill="#535353" transform="translate(32,42)"/>
<path d="M0 0 C2 1 2 1 3.125 4.25 C3.85463482 7.37700635 4.19234975 9.82622905 4 13 C3.34 12.01 2.68 11.02 2 10 C1.01 9.67 0.02 9.34 -1 9 C-1.66 10.32 -2.32 11.64 -3 13 C-2.52060632 8.28596212 -2.03165952 4.33420699 0 0 Z " fill="#6E6E6E" transform="translate(50,42)"/>
<path d="M0 0 C0.66 0.33 1.32 0.66 2 1 C0.02 3.31 -1.96 5.62 -4 8 C-4.66 7.34 -5.32 6.68 -6 6 C-6.5775 6.680625 -7.155 7.36125 -7.75 8.0625 C-8.86375 9.0215625 -8.86375 9.0215625 -10 10 C-12.25 9.75 -12.25 9.75 -14 9 C-11.50175511 6.18841591 -8.721524 4.55162169 -5.4375 2.75 C-4.46683594 2.20859375 -3.49617188 1.6671875 -2.49609375 1.109375 C-1.67238281 0.74328125 -0.84867188 0.3771875 0 0 Z " fill="#745385" transform="translate(125,31)"/>
<path d="M0 0 C0.33 1.32 0.66 2.64 1 4 C0.01 4.495 0.01 4.495 -1 5 C-0.67 5.99 -0.34 6.98 0 8 C0.33 8.99 0.66 9.98 1 11 C0.01 11.495 0.01 11.495 -1 12 C-1.66 11.67 -2.32 11.34 -3 11 C-3.33 11.66 -3.66 12.32 -4 13 C-4.33 12.01 -4.66 11.02 -5 10 C-5.66 9.67 -6.32 9.34 -7 9 C-4.69 6.03 -2.38 3.06 0 0 Z " fill="#805F9C" transform="translate(108,45)"/>
<path d="M0 0 C0.99 0.33 1.98 0.66 3 1 C3.66 4.96 4.32 8.92 5 13 C4.34 13 3.68 13 3 13 C3 11.68 3 10.36 3 9 C1.68 9 0.36 9 -1 9 C-1 10.32 -1 11.64 -1 13 C-1.66 13 -2.32 13 -3 13 C-2.34 10.36 -1.68 7.72 -1 5 C-0.67 5.99 -0.34 6.98 0 8 C0.66 8 1.32 8 2 8 C1.67 7.4225 1.34 6.845 1 6.25 C0 4 0 4 0 0 Z " fill="#393939" transform="translate(66,42)"/>
<path d="M0 0 C0.33 0.99 0.66 1.98 1 3 C0.67 3.66 0.34 4.32 0 5 C-2.31 4.67 -4.62 4.34 -7 4 C-7.33 5.98 -7.66 7.96 -8 10 C-9.65 8.35 -11.3 6.7 -13 5 C-12 3 -12 3 -10 2 C-8.45386986 2.08651631 -6.91090613 2.24002636 -5.375 2.4375 C-4.14910156 2.59025391 -4.14910156 2.59025391 -2.8984375 2.74609375 C-2.27195312 2.82988281 -1.64546875 2.91367188 -1 3 C-0.67 2.01 -0.34 1.02 0 0 Z " fill="#E4EAEE" transform="translate(29,111)"/>
<path d="M0 0 C0.99773438 0.02320312 1.99546875 0.04640625 3.0234375 0.0703125 C4.52777344 0.09738281 4.52777344 0.09738281 6.0625 0.125 C6.83335938 0.14820312 7.60421875 0.17140625 8.3984375 0.1953125 C8.3984375 0.5253125 8.3984375 0.8553125 8.3984375 1.1953125 C7.769375 1.16308594 7.1403125 1.13085938 6.4921875 1.09765625 C2.11584703 1.15697412 -0.62404465 1.36770154 -4.046875 4.265625 C-6.01050595 6.5107801 -7.8539928 8.77898009 -9.6015625 11.1953125 C-9.6015625 9.52864583 -9.6015625 7.86197917 -9.6015625 6.1953125 C-10.2615625 5.2053125 -10.9215625 4.2153125 -11.6015625 3.1953125 C-10.9415625 2.8653125 -10.2815625 2.5353125 -9.6015625 2.1953125 C-9.6015625 2.8553125 -9.6015625 3.5153125 -9.6015625 4.1953125 C-6.12456053 2.91431177 -3.48331192 0.2615099 0 0 Z " fill="#487098" transform="translate(58.6015625,76.8046875)"/>
<path d="M0 0 C2.475 0.495 2.475 0.495 5 1 C5.33 2.65 5.66 4.3 6 6 C4.02 6.33 2.04 6.66 0 7 C0 4.69 0 2.38 0 0 Z " fill="#CFCFCF" transform="translate(57,100)"/>
<path d="M0 0 C0 3.41761705 -0.75938546 5.82954062 -2 9 C-2.99 9.495 -2.99 9.495 -4 10 C-4.33 9.01 -4.66 8.02 -5 7 C-5.99 7 -6.98 7 -8 7 C-3.375 1.125 -3.375 1.125 0 0 Z " fill="#5C93C3" transform="translate(46,83)"/>
<path d="M0 0 C4.62 0 9.24 0 14 0 C14 0.99 14 1.98 14 3 C12.41590006 2.88512252 10.83271037 2.75765492 9.25 2.625 C8.36828125 2.55539063 7.4865625 2.48578125 6.578125 2.4140625 C4 2 4 2 0 0 Z " fill="#7F5D8F" transform="translate(60,70)"/>
<path d="M0 0 C0.66 0 1.32 0 2 0 C2.33 0.66 2.66 1.32 3 2 C3.99 1.67 4.98 1.34 6 1 C4.25 5.875 4.25 5.875 2 7 C2 6.34 2 5.68 2 5 C0.02 5.99 0.02 5.99 -2 7 C-1.34 4.69 -0.68 2.38 0 0 Z " fill="#74478D" transform="translate(101,55)"/>
<path d="M0 0 C0.99 0.33 1.98 0.66 3 1 C2.3125 2.9375 2.3125 2.9375 1 5 C-1.625 5.75 -1.625 5.75 -4 6 C-4.33 5.01 -4.66 4.02 -5 3 C-2.6875 1.4375 -2.6875 1.4375 0 0 Z " fill="#5891C7" transform="translate(32,100)"/>
<path d="M0 0 C0.33 1.32 0.66 2.64 1 4 C1.66 4 2.32 4 3 4 C2.67 6.97 2.34 9.94 2 13 C1.01 12.67 0.02 12.34 -1 12 C-1.08159574 7.83861737 -0.98248524 4.0527516 0 0 Z " fill="#EDEDED" transform="translate(62,43)"/>
<path d="M0 0 C2 3 2 3 2 7 C0.02 7 -1.96 7 -4 7 C-3.67 5.35 -3.34 3.7 -3 2 C-2.34 2.33 -1.68 2.66 -1 3 C-0.67 2.01 -0.34 1.02 0 0 Z " fill="#A1A1A1" transform="translate(72,95)"/>
<path d="M0 0 C1.65 0 3.3 0 5 0 C4.67 1.65 4.34 3.3 4 5 C2.68 5 1.36 5 0 5 C0 3.35 0 1.7 0 0 Z " fill="#DFE0E1" transform="translate(57,94)"/>
<path d="M0 0 C1 2 2 4 3 6 C6.02934491 6.65772428 6.02934491 6.65772428 9 7 C9 7.33 9 7.66 9 8 C6.69 8.33 4.38 8.66 2 9 C0.4375 7.3125 0.4375 7.3125 -1 5 C-0.6875 2.25 -0.6875 2.25 0 0 Z " fill="#444444" transform="translate(116,99)"/>
<path d="M0 0 C2.32472205 2.85306797 3.7508258 5.54074837 5 9 C3.33333333 9 1.66666667 9 0 9 C0 6.03 0 3.06 0 0 Z " fill="#E2E2E2" transform="translate(21,46)"/>
<path d="M0 0 C0.33 0.99 0.66 1.98 1 3 C1.99 3 2.98 3 4 3 C4 4.32 4 5.64 4 7 C2.68 6.67 1.36 6.34 0 6 C-0.38218767 4.34385343 -0.71395102 2.67542976 -1 1 C-0.67 0.67 -0.34 0.34 0 0 Z " fill="#F3F3F3" transform="translate(40,47)"/>
<path d="M0 0 C0.33 0.99 0.66 1.98 1 3 C-0.21484375 5.04296875 -0.21484375 5.04296875 -1.9375 7.1875 C-2.50339844 7.90292969 -3.06929687 8.61835937 -3.65234375 9.35546875 C-4.09707031 9.89816406 -4.54179687 10.44085938 -5 11 C-5 7.58678765 -4.33132534 6.60527115 -2.5 3.8125 C-2.0359375 3.09707031 -1.571875 2.38164063 -1.09375 1.64453125 C-0.7328125 1.10183594 -0.371875 0.55914062 0 0 Z " fill="#DBDBDB" transform="translate(136,108)"/>
<path d="M0 0 C2 3 2 3 2 7 C0.68 7 -0.64 7 -2 7 C-1.34 4.69 -0.68 2.38 0 0 Z " fill="#C1C1C1" transform="translate(93,95)"/>
<path d="M0 0 C0.66 0.99 1.32 1.98 2 3 C-0.31 4.98 -2.62 6.96 -5 9 C-5.66 8.67 -6.32 8.34 -7 8 C-4.69 5.36 -2.38 2.72 0 0 Z " fill="#E3EBF3" transform="translate(51,85)"/>
<path d="M0 0 C2 2 2 2 2.125 4.625 C2.08375 5.40875 2.0425 6.1925 2 7 C1.34 6.01 0.68 5.02 0 4 C-0.99 3.67 -1.98 3.34 -3 3 C-3.66 4.32 -4.32 5.64 -5 7 C-4.67 5.35 -4.34 3.7 -4 2 C-2.68 2 -1.36 2 0 2 C0 1.34 0 0.68 0 0 Z " fill="#2A2A2A" transform="translate(52,48)"/>
<path d="M0 0 C0.33 0.66 0.66 1.32 1 2 C0.0625 4.125 0.0625 4.125 -1 6 C-2.65 5.67 -4.3 5.34 -6 5 C-4.06745228 2.9754262 -2.36841312 1.57894208 0 0 Z " fill="#5A96C4" transform="translate(38,93)"/>
<path d="M0 0 C0.99 0.33 1.98 0.66 3 1 C3 1.66 3 2.32 3 3 C2.01 3.495 2.01 3.495 1 4 C-0.13350534 6.01669827 -0.13350534 6.01669827 -1 8 C-1.93065133 5.39417629 -2.14917407 4.35801776 -1.0625 1.75 C-0.711875 1.1725 -0.36125 0.595 0 0 Z " fill="#333333" transform="translate(92,92)"/>
<path d="M0 0 C-3.99560608 2.83022097 -7.42737323 1.76210446 -12 1 C-8.00439392 -1.83022097 -4.57262677 -0.76210446 0 0 Z " fill="#D4DBF1" transform="translate(76,73)"/>
<path d="M0 0 C0.33 0 0.66 0 1 0 C1.66 2.64 2.32 5.28 3 8 C1.35 8.33 -0.3 8.66 -2 9 C-1.34 6.03 -0.68 3.06 0 0 Z " fill="#DBDBDB" transform="translate(83,47)"/>
<path d="M0 0 C1.32 0 2.64 0 4 0 C3.67 1.32 3.34 2.64 3 4 C1.35 4 -0.3 4 -2 4 C-1.34 2.68 -0.68 1.36 0 0 Z " fill="#DFD9E3" transform="translate(89,76)"/>
<path d="M0 0 C0.66 0.33 1.32 0.66 2 1 C-0.475 4.465 -0.475 4.465 -3 8 C-3.33 6.68 -3.66 5.36 -4 4 C-2.0625 1.75 -2.0625 1.75 0 0 Z " fill="#E1F1F9" transform="translate(51,72)"/>
<path d="M0 0 C0.99 0.33 1.98 0.66 3 1 C3.33 3.31 3.66 5.62 4 8 C3.34 8 2.68 8 2 8 C0.23537317 4.91190305 0 3.76687864 0 0 Z " fill="#484848" transform="translate(66,42)"/>
</svg>
